{"title":"Midway  (War Action  1976)  Charlton Heston, Henry Fonda, James ","uid":9508470,"size":656852771,"categoryP":"video","categoryS":"movies","magnet":"?xt=urn:btih:ecc7edea6b2cf107e377d12b743a3bb3d5b5c29f&amp;dn=Midway++%28War+Action++1976%29++Charlton+Heston%2C+Henry+Fonda%2C+James+&amp;tr=udp%3A%2F%2Ftracker.openbittorrent.com%3A80&amp;tr=udp%3A%2F%2Fopen.demonii.com%3A1337&amp;tr=udp%3A%2F%2Ftracker.coppersurfer.tk%3A6969&amp;tr=udp%3A%2F%2Fexodus.desync.com%3A6969","seeders":4,"leechers":3,"uploader":"BurtonW","files":1,"time":1390358354,"description":" &lt;a href=&quot;http://www.imdb.com/title/tt0074899/?ref_=fn_al_tt_1&quot; rel=&quot;nofollow&quot; target=&quot;_NEW&quot;&gt;http://www.imdb.com/title/tt0074899/?ref_=fn_al_tt_1&lt;/a&gt;\n\n\nA good quality film.\n\n\nEnglish subtitles!\n\n\nStoryline:\n\n   The summer of 1942 brought Naval stalemate to the Pacific as the American and Japanese fleets stood at even numbers each waiting for the other to begin a renewed offensive. &quot;Midway&quot; tells the story of this historic June battle where a Japanese carrier force, in an attempt to occupy Midway island and lure the American fleet to destruction, was meet valiantly by US forces operating off of three aircraft carriers and numerous escort ships. It was the first battle in which naval air power was extensively used, and at its conclusion the Japanese Carrier force had been completely destroyed which lead the way for the US 1943 and 44 offensives which would eventually bring the Pacific War to a close.\n\n\nTechnical info:\n\n\nGeneral:\n\nComplete name:                  : Midway  (War Action  1976)  Charlton Heston, Henry Fonda, James Coburn &amp; Tom Selleck.mp4\n\nFormat                         : MPEG-4\nFormat profile                 : Base Media / Version 2\nCodec ID                       : mp42\nFile size                      : 626 MiB\nDuration                       : 2h 6mn\nOverall bit rate mode          : Variable\nOverall bit rate               : 695 Kbps\nEncoded date                   : UTC 2013-12-07 11:06:10\nTagged date                    : UTC 2013-12-07 20:58:12\n\n\nVideo:\n\nID                             : 1\nFormat                         : AVC\nFormat/Info                    : Advanced Video Codec\nFormat profile                 : &lt;a class=&quot;__cf_email__&quot; href=&quot;/cdn-cgi/l/email-protection&quot; data-cfemail=&quot;abe6cac2c5ebe79f859b&quot;&gt;[email&amp;#160;protected]&lt;/a&gt;&lt;script cf-hash='f9e31' type=&quot;text/javascript&quot;&gt;\n/* &lt;![CDATA[ */!function(){try{var t=&quot;currentScript&quot;in document?document.currentScript:function(){for(var t=document.getElementsByTagName(&quot;script&quot;),e=t.length;e--;)if(t[e].getAttribute(&quot;cf-hash&quot;))return t[e]}();if(t&amp;&amp;t.previousSibling){var e,r,n,i,c=t.previousSibling,a=c.getAttribute(&quot;data-cfemail&quot;);if(a){for(e=&quot;&quot;,r=parseInt(a.substr(0,2),16),n=2;a.length-n;n+=2)i=parseInt(a.substr(n,2),16)^r,e+=String.fromCharCode(i);e=document.createTextNode(e),c.parentNode.replaceChild(e,c)}}}catch(u){}}();/* ]]&gt; */&lt;/script&gt;\nFormat settings, CABAC         : Yes\nFormat settings, ReFrames      : 13 frames\nCodec ID                       : avc1\nCodec ID/Info                  : Advanced Video Coding\nDuration                       : 2h 6mn\nBit rate mode                  : Variable\nBit rate                       : 528 Kbps\nWidth                          : 1 200 pixels\nHeight                         : 512 pixels\nDisplay aspect ratio           : 2.35:1\nFrame rate mode                : Constant\nFrame rate                     : 25.000 fps\nColor space                    : YUV\nChroma subsampling             : 4:2:0\nBit depth                      : 8 bits\nScan type                      : Progressive\nBits/(Pixel*Frame)             : 0.034\nStream size                    : 476 MiB (76%)\nWriting library                : x264 core 130 r2273 b3065e6\nEncoding settings              : Deleted\nEncoded date                   : UTC 2013-12-07 11:06:10\nTagged date                    : UTC 2013-12-07 20:58:12\nColor primaries                : BT.601 PAL\nTransfer characteristics       : BT.709\nMatrix coefficients            : BT.601\n\nAudio:\n\nID                             : 2\nFormat                         : AAC\nFormat/Info                    : Advanced Audio Codec\nFormat profile                 : LC\nCodec ID                       : 40\nDuration                       : 2h 6mn\nBit rate mode                  : Variable\nBit rate                       : 160 Kbps\nMaximum bit rate               : 308 Kbps\nChannel(s)                     : 2 channels\nChannel positions              : Front: L R\nSampling rate                  : 48.0 KHz\nCompression mode               : Lossy\nDelay relative to video        : 80ms\nStream size                    : 144 MiB (23%)\nLanguage                       : English\nEncoded date                   : UTC 2013-12-07 11:06:10\nTagged date                    : UTC 2013-12-07 20:58:11\n\nText #1:\n\nID                             : 3\nFormat                         : mp4s\nCodec ID                       : E0\nDuration                       : 2h 3mn\nBit rate mode                  : Variable\nBit rate                       : 2 868 bps\nMaximum bit rate               : 4 194 Mbps\nDelay relative to video        : 80ms\nStream size                    : 2.53 MiB (0%)\nLanguage                       : English\nEncoded date                   : UTC 2013-12-07 11:06:10\nTagged date                    : UTC 2013-12-07 20:56:34\n\nText #2:\n\nID                             : 4\nFormat                         : Apple text\nCodec ID                       : text\nDuration                       : 2h 5mn\nBit rate mode                  : Variable\nBit rate                       : 0 bps\nStream size                    : 471 Bytes (0%)\nEncoded date                   : UTC 2013-12-07 11:06:10\nTagged date                    : UTC 2013-12-07 20:58:11\n\n","torrent":{"xt":"urn:btih:ecc7edea6b2cf107e377d12b743a3bb3d5b5c29f","amp;dn":"Midway++%28War+Action++1976%29++Charlton+Heston%2C+Henry+Fonda%2C+James+","amp;tr":["udp%3A%2F%2Ftracker.openbittorrent.com%3A80","udp%3A%2F%2Fopen.demonii.com%3A1337","udp%3A%2F%2Ftracker.coppersurfer.tk%3A6969","udp%3A%2F%2Fexodus.desync.com%3A6969"],"infoHash":"ecc7edea6b2cf107e377d12b743a3bb3d5b5c29f","infoHashBuffer":{"type":"Buffer","data":[236,199,237,234,107,44,241,7,227,119,209,43,116,58,59,179,213,181,194,159]},"announce":[],"urlList":[]}}